<svg xmlns="http://www.w3.org/2000/svg" width="26.314" height="26.314" viewBox="0 0 26.314 26.314"><defs><style>.a{fill:#ffcd3f;}</style></defs><g transform="translate(26.315) rotate(90)"><g transform="translate(0 0.001)"><path class="a" d="M24.886,11.322H14.993V1.429A1.775,1.775,0,0,0,13.157,0a1.775,1.775,0,0,0-1.836,1.428v9.893H1.428A1.775,1.775,0,0,0,0,13.158a1.775,1.775,0,0,0,1.428,1.836h9.893v9.893a1.775,1.775,0,0,0,1.836,1.428,1.775,1.775,0,0,0,1.836-1.428V14.994h9.893a1.775,1.775,0,0,0,1.428-1.836A1.775,1.775,0,0,0,24.886,11.322Z" transform="translate(0 -0.001)"/></g></g></svg>