<svg xmlns="http://www.w3.org/2000/svg" width="17.506" height="14.199" viewBox="0 0 17.506 14.199"><defs><style>.a{fill:#181818;fill-rule:evenodd;}</style></defs><path class="a" d="M43.543,16.2A10.121,10.121,0,0,0,53.755,5.987V5.5a7.905,7.905,0,0,0,1.751-1.848,8.073,8.073,0,0,1-2.042.584,3.784,3.784,0,0,0,1.556-1.945,8.92,8.92,0,0,1-2.237.875A3.473,3.473,0,0,0,50.157,2a3.654,3.654,0,0,0-3.6,3.6,1.9,1.9,0,0,0,.1.778,10.055,10.055,0,0,1-7.391-3.793,3.724,3.724,0,0,0-.486,1.848,3.864,3.864,0,0,0,1.556,3.015,3.279,3.279,0,0,1-1.653-.486h0a3.554,3.554,0,0,0,2.918,3.5,3,3,0,0,1-.973.1,1.655,1.655,0,0,1-.681-.1,3.684,3.684,0,0,0,3.4,2.529,7.343,7.343,0,0,1-4.474,1.556,2.693,2.693,0,0,1-.875-.1A9.18,9.18,0,0,0,43.543,16.2" transform="translate(-38 -2)"/></svg>