<svg xmlns="http://www.w3.org/2000/svg" width="17.506" height="17.506" viewBox="0 0 17.506 17.506"><defs><style>.a{fill:#181818;fill-rule:evenodd;}</style></defs><path class="a" d="M8.753,1.556a26.838,26.838,0,0,1,3.5.1,4.511,4.511,0,0,1,1.653.292A3.416,3.416,0,0,1,15.561,3.6a4.511,4.511,0,0,1,.292,1.653c0,.875.1,1.167.1,3.5a26.838,26.838,0,0,1-.1,3.5,4.511,4.511,0,0,1-.292,1.653,3.416,3.416,0,0,1-1.653,1.653,4.511,4.511,0,0,1-1.653.292c-.875,0-1.167.1-3.5.1a26.838,26.838,0,0,1-3.5-.1A4.511,4.511,0,0,1,3.6,15.561a3.416,3.416,0,0,1-1.653-1.653,4.511,4.511,0,0,1-.292-1.653c0-.875-.1-1.167-.1-3.5a26.838,26.838,0,0,1,.1-3.5A4.511,4.511,0,0,1,1.945,3.6a3.493,3.493,0,0,1,.681-.973A1.644,1.644,0,0,1,3.6,1.945a4.511,4.511,0,0,1,1.653-.292,26.838,26.838,0,0,1,3.5-.1M8.753,0a28.736,28.736,0,0,0-3.6.1,6,6,0,0,0-2.14.389,3.807,3.807,0,0,0-1.556.973A3.807,3.807,0,0,0,.486,3.015,4.431,4.431,0,0,0,.1,5.154a28.736,28.736,0,0,0-.1,3.6,28.736,28.736,0,0,0,.1,3.6,6,6,0,0,0,.389,2.14,3.807,3.807,0,0,0,.973,1.556,3.807,3.807,0,0,0,1.556.973,6,6,0,0,0,2.14.389,28.736,28.736,0,0,0,3.6.1,28.736,28.736,0,0,0,3.6-.1,6,6,0,0,0,2.14-.389,4.08,4.08,0,0,0,2.529-2.529,6,6,0,0,0,.389-2.14c0-.973.1-1.264.1-3.6a28.736,28.736,0,0,0-.1-3.6,6,6,0,0,0-.389-2.14,3.807,3.807,0,0,0-.973-1.556A3.807,3.807,0,0,0,14.491.486,6,6,0,0,0,12.351.1a28.736,28.736,0,0,0-3.6-.1m0,4.279A4.4,4.4,0,0,0,4.279,8.753,4.474,4.474,0,1,0,8.753,4.279m0,7.391A2.866,2.866,0,0,1,5.835,8.753,2.866,2.866,0,0,1,8.753,5.835,2.866,2.866,0,0,1,11.67,8.753,2.866,2.866,0,0,1,8.753,11.67m4.668-8.656a1.07,1.07,0,1,0,1.07,1.07,1.079,1.079,0,0,0-1.07-1.07"/></svg>